<svg width="120" height="46" viewBox="0 0 120 46" fill="none" xmlns="http://www.w3.org/2000/svg">
<path fill-rule="evenodd" clip-rule="evenodd" d="M22.1628 0H22.8401C28.2619 0.0700356 33.6342 2.17879 37.6313 5.84626C38.6887 6.78235 39.6299 7.84484 40.484 8.96797C42.5295 11.678 43.9456 14.8586 44.593 18.1913C45.3301 21.9451 45.0884 25.8867 43.8893 29.5191C43.0924 31.9636 41.8642 34.2645 40.2918 36.2981C38.5666 38.5221 36.4219 40.4174 34.0006 41.854C30.6431 43.8559 26.7562 44.9509 22.8487 45.0107H22.168C18.5073 44.9543 14.8621 43.9943 11.6567 42.2229C8.80399 40.6574 6.30064 38.4632 4.37552 35.8403C1.61338 32.1028 0.064911 27.4907 0 22.8444V22.1646C0.0392883 19.9149 0.406548 17.6695 1.10861 15.5308C2.71772 10.5378 6.14605 6.16228 10.607 3.40185C14.0549 1.24612 18.0974 0.0606406 22.1628 0ZM19.8047 5.32783C16.449 5.83601 13.2555 7.35288 10.7377 9.62904C9.01922 11.1724 7.6168 13.0668 6.63203 15.155C5.15018 18.2699 4.63004 21.8289 5.14847 25.2384C5.62762 28.4541 7.02747 31.5263 9.14135 33.9954C11.8121 37.153 15.6461 39.2942 19.7321 39.928C23.4243 40.519 27.3002 39.8818 30.6064 38.1327C33.688 36.5244 36.2622 33.9698 37.8961 30.9011C39.6598 27.6367 40.3209 23.8061 39.799 20.1352C33.9228 25.9678 28.0612 31.8149 22.1868 37.6493C21.7409 38.1045 21.0201 38.2215 20.4367 37.9926C20.066 37.85 19.803 37.5425 19.5288 37.27C15.9177 33.6752 12.3032 30.0837 8.69295 26.488C8.07545 25.9123 8.02847 24.8498 8.60669 24.2306C9.13879 23.6823 9.68797 23.1493 10.2295 22.6095C10.6958 22.1406 11.4517 22.0048 12.0538 22.2747C12.4407 22.4319 12.6978 22.7744 12.995 23.0511C15.6837 25.727 18.3732 28.4011 21.0611 31.0779C26.4282 25.7312 31.8013 20.3906 37.1684 15.0448C37.3888 14.8023 37.6638 14.6161 37.9712 14.5008C36.2374 11.1869 33.4181 8.45722 30.0401 6.84982C26.8851 5.32527 23.2663 4.78975 19.8047 5.32783Z" fill="white"/>
<path fill-rule="evenodd" clip-rule="evenodd" d="M22.7508 9.18405C23.2966 8.94832 24.0055 9.22248 24.1891 9.80326C24.3403 10.3226 24.319 10.964 23.9312 11.3799C23.4358 11.889 22.4434 11.7233 22.1906 11.0408C21.9471 10.4097 22.0539 9.47444 22.7508 9.18405ZM23.0182 9.61707C22.773 9.71358 22.7303 10.0117 22.703 10.2406C22.6902 10.5301 22.6834 10.8683 22.8943 11.0964C23.1044 11.2988 23.4811 11.1886 23.5648 10.9136C23.6852 10.5711 23.7032 10.1765 23.5656 9.83657C23.4837 9.61963 23.2249 9.54277 23.0182 9.61707Z" fill="white"/>
<path fill-rule="evenodd" clip-rule="evenodd" d="M24.8135 9.17294C25.0364 9.20881 25.2593 9.24298 25.4805 9.29081C25.5207 9.91942 25.5822 10.548 25.6069 11.1784C25.876 10.6095 26.1706 10.0544 26.4422 9.48725C26.666 9.53081 26.8889 9.57608 27.1127 9.62049C26.6856 10.39 26.2372 11.1476 25.8 11.9112C25.5805 11.8693 25.3609 11.8258 25.144 11.7711C25.0364 10.905 24.9365 10.0373 24.8135 9.17294Z" fill="white"/>
<path fill-rule="evenodd" clip-rule="evenodd" d="M19.8838 9.46933C20.2339 9.27972 20.7046 9.22677 21.0599 9.42919C21.2563 9.54876 21.3562 9.76314 21.4451 9.96556C21.2563 10.0168 21.0641 10.0552 20.8702 10.08C20.8011 9.963 20.7122 9.86051 20.6089 9.77253C20.4039 9.77083 20.1784 9.80926 20.0734 10.0083C19.9752 10.2722 20.0324 10.5592 20.093 10.8248C20.1451 11.034 20.2322 11.2629 20.4415 11.3611C20.6448 11.4414 20.8506 11.3355 21.0411 11.2706C21.0274 11.1297 21.0103 10.9896 20.9855 10.8504C20.8429 10.8709 20.7003 10.894 20.5576 10.9162C20.5363 10.7778 20.5141 10.6403 20.4927 10.5028C20.8258 10.437 21.1598 10.3721 21.4929 10.3089C21.5655 10.6523 21.6321 10.9973 21.6927 11.3432C21.346 11.7506 20.7712 11.9479 20.2476 11.8411C19.7702 11.7216 19.508 11.2339 19.4482 10.7778C19.332 10.3098 19.4362 9.72641 19.8838 9.46933Z" fill="white"/>
<path fill-rule="evenodd" clip-rule="evenodd" d="M28.311 10.0681C28.5262 10.1295 28.7261 10.2337 28.9259 10.3345C28.8072 10.9452 28.709 11.561 28.5817 12.17C28.9934 11.7028 29.4008 11.2313 29.8057 10.7582C30.0141 10.853 30.2216 10.952 30.4266 11.0554C29.8099 11.6866 29.2001 12.3237 28.5766 12.9489C28.3776 12.8498 28.1786 12.7508 27.9805 12.65C28.1035 11.7908 28.1957 10.9281 28.311 10.0681Z" fill="white"/>
<path fill-rule="evenodd" clip-rule="evenodd" d="M76.7275 10.1133C77.1324 10.1107 77.5372 10.1125 77.9429 10.1125C77.9796 10.3431 78.0164 10.6352 78.2632 10.7385C78.598 10.8769 78.9926 10.8709 79.3283 10.7377C79.5794 10.6403 79.6238 10.3473 79.6596 10.1125C80.0636 10.1116 80.4676 10.1107 80.8725 10.1133C80.9041 10.8179 80.477 11.5354 79.7818 11.7369C79.119 11.9308 78.3802 11.9368 77.7251 11.7122C77.0683 11.4816 76.7327 10.7744 76.7275 10.1133Z" fill="white"/>
<path fill-rule="evenodd" clip-rule="evenodd" d="M112.007 10.1654C112.678 10.162 113.349 10.1637 114.021 10.1654C113.391 10.7351 112.766 11.3099 112.137 11.8804C111.676 11.8813 111.215 11.8822 110.756 11.8796C111.168 11.3056 111.59 10.7377 112.007 10.1654Z" fill="white"/>
<path fill-rule="evenodd" clip-rule="evenodd" d="M15.8818 10.9964C16.4114 10.7658 16.9153 10.4831 17.438 10.2389C17.5089 10.3806 17.5806 10.5233 17.6532 10.6651C17.3235 10.8367 16.9853 10.9896 16.6505 11.1502C16.7137 11.309 16.7786 11.467 16.8598 11.6182C17.145 11.4781 17.4329 11.3449 17.7173 11.204C17.7839 11.3389 17.8505 11.4747 17.9171 11.6097C17.6361 11.7506 17.3543 11.8907 17.0733 12.0325C17.1587 12.205 17.2441 12.3767 17.3295 12.5492C17.6626 12.3869 17.9906 12.2152 18.3288 12.0658C18.3988 12.2067 18.468 12.3476 18.5381 12.4885C18.0248 12.7473 17.5055 12.9907 16.9913 13.2453C16.6138 12.4996 16.2499 11.7472 15.8818 10.9964Z" fill="white"/>
<path fill-rule="evenodd" clip-rule="evenodd" d="M58.54 11.2783C58.7433 10.7778 59.1541 10.3439 59.7025 10.2465C60.2807 10.0791 60.8469 10.3337 61.3748 10.5463C61.7993 10.7231 62.3544 10.6164 62.5679 10.1748C62.8942 10.3704 63.2213 10.5634 63.5493 10.7547C63.346 11.2715 62.9113 11.7088 62.3476 11.7993C61.795 11.9428 61.2543 11.7122 60.7538 11.5029C60.3259 11.3133 59.7383 11.3987 59.5274 11.8608C59.1977 11.6669 58.8689 11.473 58.54 11.2783Z" fill="white"/>
<path fill-rule="evenodd" clip-rule="evenodd" d="M14.6987 11.7899C14.8601 11.6669 15.0249 11.5473 15.1906 11.4303C15.6843 12.0974 16.1873 12.7576 16.6785 13.4263C16.517 13.5476 16.3556 13.6689 16.1942 13.7902C15.657 13.5493 15.1146 13.3179 14.5774 13.0779C14.8917 13.4827 15.1957 13.8961 15.4972 14.3112C15.3324 14.4299 15.171 14.552 15.0113 14.6767C14.5099 14.0105 14.0171 13.3375 13.5166 12.6713C13.6789 12.5526 13.8403 12.4322 14 12.3092C14.5424 12.5483 15.0898 12.7747 15.6271 13.0275C15.311 12.6192 15.0121 12.199 14.6987 11.7899Z" fill="white"/>
<path fill-rule="evenodd" clip-rule="evenodd" d="M31.0149 11.4414C31.1823 11.5593 31.3455 11.6823 31.5069 11.8087C31.436 12.3946 31.3557 12.9788 31.2865 13.5639C31.5812 13.1436 31.8972 12.7371 32.2072 12.3271C32.3661 12.451 32.5284 12.5705 32.6932 12.6876C32.1944 13.3563 31.6922 14.0234 31.1917 14.6913C31.0226 14.57 30.8569 14.4444 30.7006 14.3078C30.8031 13.7287 30.8407 13.1411 30.9406 12.562C30.6357 12.9814 30.318 13.3905 30.0122 13.8081C29.8474 13.6868 29.6851 13.5621 29.5254 13.4349C30.0182 12.7678 30.5221 12.1093 31.0149 11.4414Z" fill="white"/>
<path fill-rule="evenodd" clip-rule="evenodd" d="M26.6763 11.655C26.8625 11.608 27.0846 11.7045 27.1247 11.9052C27.1563 12.1409 26.8531 12.3502 26.6524 12.1999C26.403 12.1273 26.4261 11.7054 26.6763 11.655Z" fill="white"/>
<path fill-rule="evenodd" clip-rule="evenodd" d="M18.997 11.7429C19.2251 11.6806 19.4574 11.9863 19.3045 12.1819C19.1849 12.3809 18.8271 12.4279 18.7297 12.1836C18.6255 11.9855 18.7972 11.7728 18.997 11.7429Z" fill="white"/>
<path fill-rule="evenodd" clip-rule="evenodd" d="M59.5621 12.3314C60.552 12.334 61.5428 12.3322 62.5335 12.3322C63.2168 15.9562 63.9129 19.5775 64.5902 23.2023C63.9069 23.2031 63.2236 23.2014 62.5412 23.2031C62.414 22.5498 62.3072 21.893 62.1868 21.2387C61.3634 21.2379 60.5409 21.2379 59.7184 21.2387C59.5955 21.8895 59.5143 22.5609 59.352 23.1972C58.7337 23.2108 58.1145 23.1997 57.4961 23.2006C58.1888 19.5784 58.8661 15.9536 59.5621 12.3314ZM59.9841 19.68C60.6246 19.6766 61.2652 19.6757 61.9058 19.68C61.5915 17.8685 61.2567 16.0595 60.9449 14.248C60.6332 16.0595 60.2992 17.8685 59.9841 19.68Z" fill="white"/>
<path fill-rule="evenodd" clip-rule="evenodd" d="M91.4085 13.4263C91.8347 12.7337 92.647 12.3963 93.4302 12.3229C94.1895 12.2665 94.9863 12.2784 95.6918 12.6004C96.2444 12.8447 96.686 13.3256 96.8773 13.8995C97.119 14.5973 97.0413 15.348 97.0549 16.0732C96.4101 16.0749 95.7661 16.0749 95.123 16.0732C95.1085 15.5684 95.1529 15.0594 95.0888 14.5572C94.9317 13.5468 93.086 13.6134 93.0612 14.6682C93.027 16.5814 93.0578 18.4962 93.0458 20.4094C93.0535 20.7263 93.0168 21.0679 93.1765 21.3566C93.3106 21.6017 93.5941 21.7213 93.8606 21.7537C94.2091 21.7956 94.6045 21.7555 94.8736 21.5061C95.0922 21.2883 95.1161 20.9603 95.1204 20.6699C95.1247 20.0174 95.1196 19.3657 95.123 18.714C94.8181 18.714 94.514 18.714 94.2108 18.7132C94.2091 18.1982 94.21 17.6823 94.21 17.1673C95.158 17.1673 96.1069 17.1664 97.0549 17.1681C97.0515 18.334 97.0626 19.4998 97.0498 20.6665C97.0404 21.3685 96.8397 22.1125 96.3067 22.601C95.6816 23.1895 94.7779 23.3372 93.9503 23.3176C93.1364 23.321 92.2498 23.1348 91.6699 22.5216C91.1685 22.0134 91.0088 21.2729 91.0054 20.5811C91.0037 19.0454 91.0054 17.5089 91.0045 15.9724C91.0105 15.1166 90.9234 14.1822 91.4085 13.4263Z" fill="white"/>
<path fill-rule="evenodd" clip-rule="evenodd" d="M50.5149 12.3852C51.6679 12.3852 52.8218 12.3809 53.9757 12.3869C54.7563 12.4057 55.6053 12.603 56.1442 13.2094C56.6097 13.7253 56.7421 14.4453 56.7455 15.1192C56.7489 16.8837 56.7464 18.6474 56.7472 20.4111C56.7498 21.1123 56.6302 21.8673 56.1451 22.4063C55.6062 23.0127 54.7572 23.21 53.9774 23.2288C52.8227 23.2347 51.6688 23.2305 50.5149 23.2305C50.5158 21.6683 50.5141 20.1053 50.5158 18.5432C50.2954 18.5432 50.0751 18.5432 49.8556 18.5424C49.8539 18.0846 49.8547 17.6259 49.8547 17.1681C50.0742 17.1673 50.2946 17.1673 50.5149 17.1664C50.5149 15.5727 50.5158 13.9789 50.5149 12.3852ZM52.5613 13.9311C52.5639 15.0098 52.5622 16.0877 52.5622 17.1664C52.9756 17.1681 53.3898 17.1664 53.804 17.1673C53.8032 17.6259 53.804 18.0837 53.8032 18.5424C53.3889 18.5441 52.9747 18.5424 52.5613 18.5432C52.5639 19.5929 52.5622 20.6434 52.5622 21.6931C53.0926 21.6735 53.6383 21.7537 54.1576 21.6103C54.524 21.5009 54.7094 21.1123 54.6974 20.7502C54.7025 18.79 54.7017 16.829 54.6974 14.8681C54.7153 14.4854 54.4993 14.0814 54.1072 13.9883C53.5999 13.8782 53.0755 13.9516 52.5613 13.9311Z" fill="white"/>
<path fill-rule="evenodd" clip-rule="evenodd" d="M68.3659 12.3852C69.5223 12.3852 70.6787 12.3809 71.8352 12.3869C72.6124 12.4066 73.458 12.6047 73.9952 13.2086C74.4607 13.7261 74.593 14.447 74.5973 15.1226C74.5999 16.6292 74.5973 18.1367 74.5982 19.6441C74.593 20.2104 74.6272 20.7826 74.5136 21.3404C74.4 21.8887 74.1011 22.4114 73.6313 22.7291C73.0326 23.1382 72.2844 23.2339 71.5764 23.2365C70.5062 23.2458 69.436 23.2399 68.3667 23.239C68.3659 21.6735 68.3659 20.1088 68.3667 18.5432C68.1455 18.5432 67.926 18.5432 67.7065 18.5424C67.7048 18.0837 67.7048 17.6259 67.7056 17.1681C67.9251 17.1673 68.1455 17.1673 68.3659 17.1664C68.3659 15.5727 68.3667 13.9789 68.3659 12.3852ZM70.4123 13.9311C70.414 15.0098 70.4131 16.0877 70.4131 17.1664C70.8265 17.1681 71.2407 17.1664 71.655 17.1673C71.6541 17.6259 71.655 18.0837 71.6541 18.5424C71.2399 18.5441 70.8256 18.5424 70.4123 18.5432C70.414 19.5929 70.4131 20.6434 70.4131 21.6931C70.9452 21.6735 71.4927 21.7555 72.0128 21.6086C72.3775 21.4984 72.5603 21.1098 72.5483 20.7493C72.5535 18.7875 72.5535 16.8256 72.5483 14.8646C72.5654 14.4811 72.3468 14.078 71.9539 13.9875C71.4474 13.879 70.9247 13.9516 70.4123 13.9311Z" fill="white"/>
<path fill-rule="evenodd" clip-rule="evenodd" d="M77.3235 12.3843C78.3151 12.3852 79.3076 12.3835 80.3009 12.3852C80.979 16.004 81.6768 19.6202 82.3507 23.2399C81.6683 23.2416 80.985 23.2407 80.3026 23.2399C80.177 22.5873 80.0677 21.9314 79.9498 21.2772C79.1273 21.2772 78.3049 21.2737 77.4832 21.278C77.3747 21.9331 77.2518 22.5856 77.139 23.2407C76.513 23.2399 75.8878 23.2424 75.2617 23.239C75.9518 19.6211 76.6325 16.0014 77.3235 12.3843ZM77.7497 19.7295H79.6748C79.3562 17.9172 79.024 16.1073 78.7105 14.2941C78.3971 16.1073 78.0631 17.9163 77.7497 19.7295Z" fill="white"/>
<path fill-rule="evenodd" clip-rule="evenodd" d="M83.2979 12.3852C84.1494 12.3835 85.0009 12.3843 85.8524 12.3843C86.5349 14.5255 87.2181 16.6676 87.9057 18.8071C87.9065 16.6668 87.9057 14.5255 87.9057 12.3852C88.5121 12.3843 89.1193 12.3835 89.7266 12.3852C89.7266 15.8878 89.724 19.3905 89.7283 22.8931C89.7121 23.0033 89.7582 23.1382 89.7001 23.2356C89.0109 23.2484 88.3208 23.2373 87.6324 23.2399C86.7971 20.6315 85.9575 18.0239 85.1299 15.413C85.1367 18.0213 85.1316 20.6306 85.1324 23.2399C84.5209 23.2416 83.9094 23.2407 83.2987 23.2399C83.2979 19.6219 83.2987 16.0031 83.2979 12.3852Z" fill="white"/>
<path fill-rule="evenodd" clip-rule="evenodd" d="M101.248 12.3852C101.93 12.3835 102.613 12.3843 103.295 12.3843C103.294 13.9507 103.3 15.5163 103.292 17.0818C104.153 15.5095 105.039 13.9516 105.911 12.3852C106.591 12.3843 107.273 12.3835 107.955 12.3852C107.019 13.9943 106.088 15.6068 105.148 17.2142C106.079 19.2248 107.024 21.2293 107.958 23.239C107.258 23.2416 106.56 23.2416 105.862 23.2399C105.208 21.8016 104.553 20.3641 103.903 18.9241C103.713 19.2564 103.481 19.5638 103.304 19.9021C103.283 21.0141 103.302 22.127 103.295 23.2399C102.613 23.2407 101.93 23.2424 101.248 23.239C101.248 19.6211 101.249 16.0031 101.248 12.3852Z" fill="white"/>
<path fill-rule="evenodd" clip-rule="evenodd" d="M108.191 12.3869C108.901 12.3826 109.611 12.3843 110.321 12.3852C110.833 14.0242 111.35 15.6606 111.854 17.3022C112.362 15.6623 112.877 14.0251 113.385 12.3852C114.035 12.3835 114.685 12.3843 115.335 12.3843C114.496 14.7809 113.645 17.1724 112.81 19.5698C112.755 20.7895 112.803 22.0168 112.786 23.239C112.104 23.2424 111.422 23.2407 110.74 23.2399C110.739 22.0979 110.738 20.956 110.742 19.8141C110.754 19.5775 110.641 19.3623 110.569 19.1445C109.777 16.8914 108.981 14.64 108.191 12.3869Z" fill="white"/>
<path fill-rule="evenodd" clip-rule="evenodd" d="M12.5391 13.6177C12.6783 13.4767 12.8184 13.3375 12.9584 13.1983C13.5503 13.7876 14.1405 14.3787 14.7307 14.9705C14.5914 15.1098 14.4531 15.249 14.3147 15.3891C13.7092 14.8125 13.1224 14.2164 12.5391 13.6177Z" fill="white"/>
<path fill-rule="evenodd" clip-rule="evenodd" d="M11.0908 15.3096C11.2155 15.1499 11.3411 14.991 11.4666 14.8322C11.9962 15.249 12.5291 15.6615 13.0552 16.0826C13.2773 15.817 13.484 15.5402 13.6984 15.2703C13.829 15.3609 13.9572 15.4548 14.0827 15.5522C13.7385 15.9844 13.3994 16.4217 13.0578 16.8564C12.401 16.3422 11.7382 15.8357 11.0908 15.3096Z" fill="white"/>
<path fill-rule="evenodd" clip-rule="evenodd" d="M10.59 16.0424C11.3288 16.4268 12.0633 16.8205 12.8038 17.2031C12.7158 17.3851 12.627 17.567 12.5288 17.7429C11.9335 17.7446 11.3407 17.8078 10.7454 17.7933C11.2032 18.0367 11.6627 18.2759 12.1222 18.515C12.0274 18.6944 11.9335 18.8746 11.837 19.0531C11.0914 18.6816 10.3637 18.2767 9.62402 17.8941C9.71456 17.7139 9.80851 17.5362 9.90417 17.3594C10.4918 17.3517 11.0785 17.2971 11.6662 17.3065C11.2195 17.0571 10.7651 16.8205 10.3116 16.5848C10.4081 16.4054 10.5003 16.2243 10.59 16.0424Z" fill="white"/>
<path fill-rule="evenodd" clip-rule="evenodd" d="M9.77195 18.9181C10.2827 18.8319 10.8455 19.001 11.2239 19.3554C11.7842 19.8927 11.4554 20.9782 10.6952 21.1226C10.1571 21.2139 9.54818 21.0389 9.17665 20.6306C8.68469 20.0669 9.0306 19.0514 9.77195 18.9181ZM9.69423 19.5305C9.39701 19.6467 9.34491 20.1062 9.62676 20.271C9.93509 20.4564 10.3134 20.5802 10.6756 20.5358C11.0172 20.5033 11.1419 19.9951 10.8558 19.8055C10.533 19.5621 10.0914 19.4519 9.69423 19.5305Z" fill="white"/>
<path fill-rule="evenodd" clip-rule="evenodd" d="M50.6481 25.452H114.705C114.704 25.651 114.704 25.85 114.705 26.0498H50.6481C50.6472 25.85 50.6472 25.651 50.6481 25.452Z" fill="white"/>
<path fill-rule="evenodd" clip-rule="evenodd" d="M57.1501 27.1644C57.2876 27.1619 57.4268 27.1593 57.5669 27.1567C57.888 27.5112 58.2074 27.8682 58.5226 28.2286C58.3185 28.2235 58.1058 28.2636 57.9068 28.215C57.7163 28.0211 57.5489 27.8067 57.3619 27.6103C57.1817 27.8144 57.0032 28.0202 56.8306 28.2295C56.6222 28.2337 56.4147 28.2346 56.208 28.2329C56.5061 27.8631 56.8469 27.53 57.1501 27.1644Z" fill="white"/>
<path fill-rule="evenodd" clip-rule="evenodd" d="M69.1922 27.1644C69.3305 27.1619 69.4698 27.1593 69.6098 27.1567C69.931 27.512 70.2513 27.8682 70.5656 28.2295C70.3657 28.2329 70.1659 28.2346 69.9669 28.2372C69.7789 28.0279 69.5928 27.8178 69.4049 27.6103C69.2255 27.8144 69.047 28.0194 68.8745 28.2295C68.6661 28.2337 68.4585 28.2355 68.251 28.2329C68.5491 27.8631 68.8898 27.5308 69.1922 27.1644Z" fill="white"/>
<path fill-rule="evenodd" clip-rule="evenodd" d="M104.212 28.1347C104.42 28.1355 104.628 28.1355 104.838 28.1381C104.813 28.5079 104.767 28.9025 104.529 29.204C104.371 29.4269 104.112 29.5362 103.861 29.6191C104.041 29.9676 104.158 30.3493 104.19 30.7414C104.215 31.5835 104.274 32.4999 103.786 33.2362C103.121 34.3832 101.284 34.4712 100.468 33.448C99.9231 32.7989 99.8308 31.9115 99.8718 31.0967C99.8778 30.3246 100.128 29.5029 100.745 29.0007C101.542 28.3499 102.808 28.4319 103.536 29.1545C103.696 29.1007 103.875 29.0562 103.988 28.917C104.18 28.7044 104.176 28.4012 104.212 28.1347ZM101.585 29.2638C100.929 29.4824 100.647 30.2033 100.601 30.8387C100.582 31.5562 100.529 32.3402 100.951 32.9663C101.394 33.6914 102.588 33.7384 103.092 33.056C103.443 32.5973 103.504 31.9935 103.485 31.434C103.502 30.8413 103.478 30.1973 103.111 29.7011C102.783 29.2253 102.113 29.0802 101.585 29.2638Z" fill="white"/>
<path fill-rule="evenodd" clip-rule="evenodd" d="M99.4276 28.3226C99.618 28.3234 99.8085 28.3234 100.001 28.3243C100.009 28.7838 99.9323 29.2997 99.5728 29.6225C99.3174 29.8574 98.9638 29.9214 98.6307 29.9539C98.6299 30.761 98.6307 31.569 98.6307 32.3769C98.6333 32.8407 98.4607 33.3156 98.114 33.6316C97.7202 34.0253 97.142 34.1757 96.598 34.15C95.9856 34.1629 95.3339 33.9041 94.9965 33.3737C94.783 33.0534 94.7147 32.6631 94.719 32.2847C94.719 31.0659 94.7181 29.8471 94.7198 28.6292H95.4338C95.4364 29.8804 95.4296 31.1317 95.4364 32.3821C95.4304 32.7869 95.6158 33.2174 95.9873 33.4113C96.4314 33.6256 96.9866 33.6214 97.4179 33.3762C97.7911 33.1516 97.915 32.6878 97.9107 32.2779C97.921 31.0616 97.915 29.8446 97.9133 28.6283C98.1516 28.6292 98.3907 28.6292 98.6299 28.63C98.6307 28.8982 98.6299 29.1664 98.6299 29.4346C98.8374 29.3987 99.0603 29.3415 99.2012 29.1698C99.4002 28.9358 99.384 28.6087 99.4276 28.3226Z" fill="white"/>
<path fill-rule="evenodd" clip-rule="evenodd" d="M50.6659 28.63C51.3184 28.6352 51.9709 28.6155 52.6235 28.642C53.0616 28.6582 53.5271 28.7667 53.8508 29.0818C54.1608 29.4013 54.2428 29.8779 54.1907 30.3066C54.1173 30.7226 53.797 31.0557 53.4161 31.2162C53.6492 31.3025 53.8867 31.4135 54.0447 31.6134C54.4811 32.1523 54.4427 32.991 54.0182 33.5248C53.7005 33.9092 53.1846 34.0655 52.7012 34.0757C52.0222 34.0817 51.3432 34.0766 50.665 34.0774C50.6659 32.2616 50.6642 30.4458 50.6659 28.63ZM51.3987 29.2424C51.4004 29.8129 51.3987 30.3835 51.3996 30.954C51.9419 30.9113 52.5261 31.0642 53.0369 30.8285C53.6262 30.5697 53.6501 29.555 53.0258 29.3304C52.5005 29.1673 51.9385 29.2697 51.3987 29.2424ZM51.3987 31.5485C51.4004 32.1984 51.3987 32.8475 51.3996 33.4975C51.9675 33.4642 52.5662 33.5889 53.1103 33.3762C53.5613 33.1943 53.7048 32.6391 53.5877 32.2027C53.528 31.8269 53.1556 31.5724 52.7909 31.5561C52.3271 31.5357 51.8625 31.5527 51.3987 31.5485Z" fill="white"/>
<path fill-rule="evenodd" clip-rule="evenodd" d="M56.6718 28.6634C57.3277 28.4558 58.093 28.5549 58.6413 28.9828C59.3955 29.5764 59.5697 30.609 59.5142 31.5152C59.5424 32.2292 59.3553 32.9774 58.8822 33.5266C58.0674 34.4259 56.4267 34.3627 55.7118 33.3686C55.143 32.6204 55.1344 31.6262 55.2036 30.7303C55.2771 29.8497 55.7912 28.9426 56.6718 28.6634ZM56.9895 29.2347C56.5565 29.3441 56.2183 29.6985 56.0739 30.1136C55.8852 30.5552 55.9005 31.0411 55.9057 31.5118C55.8852 32.0413 55.9868 32.5982 56.3054 33.0337C56.7965 33.7196 57.9888 33.711 58.4483 32.9936C58.7771 32.5136 58.8147 31.9072 58.7993 31.3435C58.8173 30.7858 58.7652 30.1853 58.4295 29.7182C58.1237 29.2612 57.5045 29.0955 56.9895 29.2347Z" fill="white"/>
<path fill-rule="evenodd" clip-rule="evenodd" d="M63.1017 29.0186C63.738 28.4874 64.6946 28.4242 65.4308 28.7752C66.0458 29.0648 66.3755 29.7369 66.4361 30.3895C66.1944 30.3878 65.9535 30.3878 65.7127 30.3903C65.6478 30.047 65.5547 29.678 65.2873 29.4346C64.7809 29.0349 63.9789 29.0801 63.51 29.5191C63.147 29.8856 63.0249 30.4185 62.9984 30.9173C62.9933 31.5382 62.9446 32.1907 63.2085 32.7724C63.3742 33.1533 63.715 33.4762 64.1352 33.5419C64.5349 33.6068 64.9876 33.5445 65.3053 33.2754C65.5769 33.0397 65.6418 32.669 65.7152 32.3359C65.957 32.3377 66.1987 32.3385 66.4412 32.3402C66.3601 32.9338 66.1047 33.5641 65.5555 33.8665C65.09 34.162 64.5178 34.1851 63.9857 34.1278C63.2965 34.0177 62.7174 33.4949 62.4825 32.8458C62.216 32.2377 62.2869 31.5647 62.2801 30.9199C62.2878 30.2152 62.5466 29.4773 63.1017 29.0186Z" fill="white"/>
<path fill-rule="evenodd" clip-rule="evenodd" d="M68.7059 28.6659C69.3644 28.4541 70.1348 28.5532 70.6857 28.9836C71.4099 29.5576 71.6089 30.5475 71.5568 31.4263C71.5953 32.1856 71.4108 32.9944 70.8872 33.5675C70.028 34.4575 68.3489 34.3337 67.6835 33.2695C67.1813 32.529 67.1822 31.5886 67.2462 30.7311C67.3197 29.8531 67.8304 28.9486 68.7059 28.6659ZM69.0381 29.233C68.6034 29.3406 68.2609 29.6959 68.1165 30.1136C67.9278 30.5552 67.9432 31.042 67.9483 31.5126C67.9269 32.0413 68.0294 32.5973 68.3463 33.032C68.8365 33.7187 70.0306 33.7119 70.4901 32.9945C70.818 32.5162 70.8573 31.9132 70.8419 31.3512C70.8599 30.7892 70.8086 30.1845 70.4687 29.7147C70.1638 29.2621 69.5506 29.0972 69.0381 29.233Z" fill="white"/>
<path fill-rule="evenodd" clip-rule="evenodd" d="M72.6153 28.63C72.8562 28.6283 73.0979 28.6283 73.3396 28.63C74.2424 30.0307 75.1494 31.4297 76.0539 32.8296C76.0445 31.4289 76.0548 30.0282 76.0479 28.6275C76.2862 28.6292 76.5254 28.6292 76.7654 28.63C76.7654 30.4458 76.7645 32.2616 76.7654 34.0774C76.5254 34.0783 76.2871 34.0783 76.0479 34.0783C75.1434 32.7058 74.2706 31.311 73.355 29.9462C73.3413 31.323 73.3524 32.7006 73.349 34.0774C73.1039 34.0783 72.8587 34.0783 72.6145 34.0774C72.6145 32.2616 72.6136 30.4458 72.6153 28.63Z" fill="white"/>
<path fill-rule="evenodd" clip-rule="evenodd" d="M78.2664 29.4141C78.919 28.4003 80.5067 28.2876 81.4018 29.0315C81.7486 29.3347 81.922 29.7882 81.992 30.2332C81.7537 30.2349 81.5146 30.2349 81.2771 30.2349C81.1951 29.959 81.1157 29.6592 80.8842 29.4679C80.5477 29.1485 80.043 29.1246 79.6108 29.2057C79.1658 29.3082 78.8301 29.6806 78.7003 30.1076C78.5022 30.6713 78.5654 31.2752 78.562 31.8611C78.6038 32.5273 78.9318 33.2737 79.6159 33.489C80.1677 33.6444 80.8347 33.5761 81.2771 33.1849C81.278 32.7809 81.2763 32.3778 81.2788 31.9738C80.862 31.9755 80.4452 31.9747 80.0284 31.9747C80.0276 31.7705 80.0276 31.5664 80.0293 31.3623H81.992C81.9928 32.0345 81.9937 32.7075 81.992 33.3797C81.5649 33.9604 80.8074 34.1723 80.1156 34.1492C79.4468 34.1876 78.7618 33.8921 78.357 33.3549C77.941 32.8083 77.8052 32.1019 77.8232 31.4281C77.8086 30.7379 77.871 30.0017 78.2664 29.4141Z" fill="white"/>
<path fill-rule="evenodd" clip-rule="evenodd" d="M84.4702 28.6292H88.6535C88.6535 28.8333 88.6535 29.0374 88.6544 29.2416C88.0787 29.2424 87.503 29.2407 86.9282 29.2424C86.9299 30.8541 86.9282 32.4658 86.9291 34.0774C86.684 34.0783 86.4388 34.0783 86.1946 34.0774C86.1954 32.4658 86.1929 30.8541 86.1954 29.2424C85.6198 29.2407 85.045 29.2424 84.4693 29.2416C84.4685 29.0374 84.4685 28.8333 84.4702 28.6292Z" fill="white"/>
<path fill-rule="evenodd" clip-rule="evenodd" d="M89.4413 28.63C89.6847 28.6292 89.929 28.6292 90.1741 28.63C90.1749 29.4098 90.1758 30.1905 90.1741 30.9711C91.0752 30.9728 91.9762 30.9711 92.8782 30.972C92.8722 30.1905 92.8799 29.4098 92.8739 28.6283C93.1122 28.6292 93.3513 28.6292 93.5905 28.63C93.5922 30.4458 93.5905 32.2616 93.5913 34.0774C93.3522 34.0783 93.1139 34.0783 92.8756 34.0774C92.8764 33.2396 92.8756 32.4026 92.8764 31.5647C91.9754 31.5655 91.0752 31.5647 90.1749 31.5655V34.0774C89.9298 34.0783 89.6847 34.0783 89.4404 34.0774C89.4413 32.2616 89.4396 30.4458 89.4413 28.63Z" fill="white"/>
<path fill-rule="evenodd" clip-rule="evenodd" d="M105.327 28.63C105.567 28.6283 105.809 28.6283 106.052 28.63C106.955 30.0307 107.861 31.4297 108.766 32.8296C108.757 31.4289 108.766 30.0282 108.761 28.6275C108.998 28.6292 109.237 28.6292 109.477 28.63C109.477 30.4458 109.477 32.2616 109.477 34.0774C109.237 34.0783 108.998 34.0783 108.76 34.0783C107.856 32.6938 106.961 31.3025 106.059 29.9163C106.064 31.3033 106.059 32.6904 106.061 34.0774C105.815 34.0783 105.571 34.0783 105.327 34.0774C105.327 32.2616 105.326 30.4458 105.327 28.63Z" fill="white"/>
<path fill-rule="evenodd" clip-rule="evenodd" d="M111.028 29.4679C111.648 28.4242 113.229 28.2816 114.151 28.9905C114.527 29.2928 114.716 29.7677 114.789 30.234C114.55 30.2349 114.312 30.2349 114.075 30.2349C113.992 29.9599 113.913 29.6601 113.683 29.4688C113.344 29.1476 112.836 29.1246 112.402 29.2074C111.958 29.3116 111.624 29.6857 111.496 30.1127C111.3 30.6747 111.362 31.2769 111.36 31.8602C111.401 32.5264 111.728 33.2729 112.412 33.489C112.964 33.6453 113.631 33.5752 114.073 33.1858C114.075 32.7818 114.073 32.3778 114.076 31.9738C113.659 31.9755 113.242 31.9747 112.825 31.9747C112.824 31.7705 112.825 31.5664 112.826 31.3623H114.789C114.79 32.0353 114.791 32.7083 114.788 33.3814C114.36 33.9613 113.602 34.1731 112.909 34.1492C112.243 34.1868 111.561 33.893 111.157 33.3583C110.739 32.8134 110.602 32.1062 110.62 31.4323C110.606 30.761 110.663 30.0504 111.028 29.4679Z" fill="white"/>
<path fill-rule="evenodd" clip-rule="evenodd" d="M57.157 34.6198C57.4337 34.4942 57.8027 34.6958 57.7532 35.0212C57.7643 35.3287 57.3987 35.4782 57.1502 35.3586C56.8538 35.2373 56.8564 34.7308 57.157 34.6198Z" fill="white"/>
<path fill-rule="evenodd" clip-rule="evenodd" d="M19.8047 5.32782C23.2663 4.78974 26.8851 5.32526 30.0401 6.84981C33.418 8.45721 36.2374 11.1869 37.9712 14.5008C37.6637 14.6161 37.3887 14.8023 37.1684 15.0448C31.8012 20.3906 26.4281 25.7312 21.061 31.0779C18.3732 28.4011 15.6837 25.727 12.995 23.0511C12.6978 22.7744 12.4407 22.4319 12.0538 22.2747C11.4516 22.0048 10.6958 22.1406 10.2294 22.6095C9.68793 23.1493 9.13875 23.6823 8.60665 24.2306C8.02843 24.8498 8.07541 25.9123 8.69291 26.488C12.3032 30.0837 15.9177 33.6751 19.5288 37.27C19.8029 37.5425 20.066 37.85 20.4367 37.9926C21.02 38.2215 21.7409 38.1045 22.1867 37.6492C28.0612 31.8149 33.9228 25.9678 39.799 20.1352C40.3208 23.8061 39.6597 27.6367 37.896 30.9011C36.2622 33.9698 33.6879 36.5244 30.6064 38.1327C27.3002 39.8818 23.4243 40.519 19.7321 39.928C15.6461 39.2942 11.8121 37.153 9.14131 33.9954C7.02743 31.5263 5.62758 28.4541 5.14843 25.2384C4.63 21.8289 5.15014 18.2699 6.63199 15.155C7.61676 13.0668 9.01918 11.1724 10.7376 9.62903C13.2555 7.35287 16.4489 5.836 19.8047 5.32782ZM22.7513 9.18405C22.0543 9.47444 21.9476 10.4097 22.191 11.0408C22.4438 11.7233 23.4363 11.889 23.9316 11.3799C24.3194 10.964 24.3407 10.3226 24.1896 9.80326C24.0059 9.22248 23.297 8.94832 22.7513 9.18405ZM24.8131 9.17294C24.936 10.0373 25.036 10.905 25.1436 11.7711C25.3605 11.8258 25.58 11.8693 25.7995 11.9112C26.2368 11.1476 26.6852 10.39 27.1123 9.62049C26.8885 9.57607 26.6656 9.53081 26.4418 9.48725C26.1702 10.0544 25.8755 10.6095 25.6065 11.1784C25.5817 10.548 25.5202 9.91942 25.4801 9.29081C25.2589 9.24298 25.036 9.20881 24.8131 9.17294ZM19.8841 9.46931C19.4365 9.7264 19.3323 10.3097 19.4485 10.7778C19.5083 11.2339 19.7705 11.7216 20.2479 11.8411C20.7715 11.9479 21.3463 11.7506 21.6931 11.3432C21.6324 10.9973 21.5658 10.6522 21.4932 10.3089C21.1601 10.3721 20.8262 10.437 20.4931 10.5028C20.5144 10.6403 20.5366 10.7778 20.558 10.9161C20.7006 10.8939 20.8432 10.8709 20.9859 10.8504C21.0106 10.9896 21.0277 11.1297 21.0414 11.2706C20.8509 11.3355 20.6451 11.4414 20.4418 11.3611C20.2326 11.2629 20.1454 11.034 20.0933 10.8248C20.0327 10.5591 19.9755 10.2722 20.0737 10.0082C20.1788 9.80924 20.4042 9.77081 20.6092 9.77252C20.7126 9.86049 20.8014 9.96298 20.8706 10.08C21.0644 10.0552 21.2566 10.0168 21.4454 9.96554C21.3565 9.76312 21.2566 9.54874 21.0602 9.42917C20.7049 9.22675 20.2343 9.2797 19.8841 9.46931ZM28.3106 10.068C28.1953 10.9281 28.103 11.7907 27.98 12.65C28.1782 12.7507 28.3772 12.8498 28.5762 12.9489C29.1997 12.3237 29.8095 11.6865 30.4262 11.0554C30.2212 10.952 30.0136 10.8529 29.8052 10.7581C29.4004 11.2313 28.993 11.7028 28.5813 12.17C28.7086 11.561 28.8068 10.9452 28.9255 10.3345C28.7257 10.2337 28.5258 10.1295 28.3106 10.068ZM15.8818 10.9964C16.2499 11.7472 16.6138 12.4996 16.9913 13.2453C17.5054 12.9907 18.0247 12.7473 18.538 12.4885C18.468 12.3476 18.3988 12.2067 18.3288 12.0658C17.9906 12.2152 17.6626 12.3869 17.3295 12.5492C17.2441 12.3766 17.1587 12.205 17.0733 12.0324C17.3543 11.8907 17.6361 11.7506 17.9171 11.6097C17.8505 11.4747 17.7839 11.3389 17.7173 11.204C17.4328 11.3449 17.145 11.4781 16.8597 11.6182C16.7786 11.467 16.7137 11.309 16.6505 11.1502C16.9853 10.9896 17.3235 10.8367 17.6532 10.665C17.5806 10.5233 17.5089 10.3806 17.438 10.2389C16.9153 10.4831 16.4113 10.7658 15.8818 10.9964ZM14.6989 11.7899C15.0123 12.199 15.3113 12.6192 15.6273 13.0275C15.0901 12.7747 14.5426 12.5483 14.0002 12.3092C13.8405 12.4322 13.6791 12.5526 13.5168 12.6713C14.0173 13.3375 14.5101 14.0105 15.0115 14.6767C15.1712 14.552 15.3326 14.4299 15.4975 14.3112C15.196 13.8961 14.8919 13.4827 14.5776 13.0779C15.1148 13.3179 15.6572 13.5493 16.1944 13.7902C16.3558 13.6689 16.5173 13.5476 16.6787 13.4263C16.1876 12.7576 15.6845 12.0974 15.1909 11.4303C15.0252 11.5473 14.8603 11.6669 14.6989 11.7899ZM31.0146 11.4414C30.5218 12.1093 30.0179 12.7678 29.5251 13.4349C29.6848 13.5621 29.8471 13.6868 30.0119 13.8081C30.3177 13.3905 30.6354 12.9813 30.9403 12.562C30.8404 13.1411 30.8028 13.7287 30.7003 14.3077C30.8566 14.4444 31.0223 14.57 31.1914 14.6912C31.6919 14.0233 32.1941 13.3563 32.6929 12.6875C32.5281 12.5705 32.3658 12.4509 32.2069 12.3271C31.8969 12.7371 31.5809 13.1436 31.2862 13.5638C31.3554 12.9788 31.4357 12.3946 31.5066 11.8087C31.3452 11.6823 31.182 11.5593 31.0146 11.4414ZM26.6758 11.6549C26.4256 11.7053 26.4025 12.1272 26.6519 12.1998C26.8526 12.3502 27.1558 12.1409 27.1242 11.9052C27.0841 11.7045 26.862 11.608 26.6758 11.6549ZM18.9967 11.7429C18.7968 11.7728 18.6252 11.9855 18.7294 12.1836C18.8267 12.4279 19.1846 12.3809 19.3042 12.1819C19.457 11.9863 19.2247 11.6806 18.9967 11.7429ZM12.5389 13.6176C13.1222 14.2164 13.709 14.8125 14.3146 15.389C14.4529 15.249 14.5913 15.1097 14.7305 14.9705C14.1403 14.3786 13.5501 13.7876 12.9583 13.1983C12.8182 13.3375 12.6781 13.4767 12.5389 13.6176ZM11.0904 15.3096C11.7378 15.8357 12.4005 16.3422 13.0573 16.8564C13.399 16.4216 13.738 15.9843 14.0822 15.5522C13.9567 15.4548 13.8286 15.3608 13.6979 15.2703C13.4835 15.5402 13.2768 15.8169 13.0548 16.0826C12.5286 15.6615 11.9957 15.249 11.4662 14.8322C11.3406 14.991 11.215 15.1499 11.0904 15.3096ZM10.5899 16.0424C10.5002 16.2243 10.4079 16.4054 10.3114 16.5848C10.7649 16.8205 11.2193 17.0571 11.666 17.3065C11.0784 17.2971 10.4916 17.3517 9.90402 17.3594C9.80836 17.5362 9.71441 17.7139 9.62387 17.8941C10.3635 18.2767 11.0912 18.6816 11.8368 19.0531C11.9333 18.8746 12.0273 18.6944 12.1221 18.515C11.6626 18.2759 11.2031 18.0367 10.7453 17.7933C11.3406 17.8078 11.9333 17.7446 12.5286 17.7429C12.6269 17.567 12.7157 17.385 12.8037 17.2031C12.0632 16.8205 11.3286 16.4268 10.5899 16.0424ZM9.77163 18.9181C9.03028 19.0514 8.68437 20.0669 9.17633 20.6306C9.54786 21.0389 10.1568 21.2139 10.6949 21.1226C11.455 20.9782 11.7839 19.8927 11.2236 19.3554C10.8452 19.001 10.2824 18.8319 9.77163 18.9181Z" fill="#0084CB"/>
<path fill-rule="evenodd" clip-rule="evenodd" d="M40.4842 8.96797C65.5672 8.96797 90.6493 8.96712 115.731 8.96797C116.647 8.96882 117.561 9.27032 118.292 9.82292C119.302 10.5677 119.934 11.7779 120 13.0283V32.2309C119.934 33.6094 119.167 34.9298 117.989 35.6524C117.291 36.0914 116.465 36.3117 115.643 36.2998C90.5263 36.2972 65.4091 36.3006 40.292 36.2981C41.8644 34.2645 43.0926 31.9636 43.8894 29.5191C45.0886 25.8867 45.3303 21.9451 44.5932 18.1913C43.9458 14.8586 42.5297 11.678 40.4842 8.96797ZM76.7276 10.1133C76.7327 10.7744 77.0684 11.4816 77.7252 11.7122C78.3802 11.9368 79.119 11.9308 79.7818 11.7369C80.477 11.5354 80.9041 10.8179 80.8725 10.1133C80.4676 10.1107 80.0637 10.1116 79.6597 10.1125C79.6238 10.3473 79.5794 10.6403 79.3283 10.7376C78.9926 10.8709 78.598 10.8769 78.2632 10.7385C78.0164 10.6352 77.9797 10.3431 77.943 10.1125C77.5373 10.1125 77.1324 10.1107 76.7276 10.1133ZM112.008 10.1654C111.591 10.7376 111.169 11.3056 110.756 11.8796C111.216 11.8821 111.676 11.8813 112.137 11.8804C112.766 11.3099 113.391 10.7351 114.022 10.1654C113.349 10.1637 112.678 10.162 112.008 10.1654ZM58.5405 11.2783C58.8694 11.473 59.1982 11.6669 59.5279 11.8608C59.7388 11.3987 60.3264 11.3133 60.7543 11.5029C61.2548 11.7122 61.7955 11.9428 62.3481 11.7993C62.9118 11.7088 63.3465 11.2715 63.5498 10.7547C63.2218 10.5634 62.8947 10.3704 62.5684 10.1748C62.3549 10.6164 61.7998 10.7231 61.3753 10.5463C60.8474 10.3337 60.2812 10.0791 59.703 10.2465C59.1546 10.3439 58.7438 10.7778 58.5405 11.2783ZM59.562 12.3314C58.8659 15.9536 58.1886 19.5784 57.496 23.2006C58.1143 23.1997 58.7336 23.2108 59.3519 23.1972C59.5142 22.5609 59.5953 21.8895 59.7183 21.2387C60.5408 21.2379 61.3633 21.2379 62.1867 21.2387C62.3071 21.893 62.4138 22.5498 62.5411 23.2031C63.2235 23.2014 63.9068 23.2031 64.5901 23.2023C63.9128 19.5775 63.2167 15.9562 62.5334 12.3322C61.5427 12.3322 60.5519 12.3339 59.562 12.3314ZM91.4086 13.4263C90.9234 14.1822 91.0106 15.1166 91.0046 15.9724C91.0054 17.5089 91.0037 19.0454 91.0054 20.5811C91.0089 21.2729 91.1686 22.0134 91.6699 22.5216C92.2499 23.1348 93.1364 23.321 93.9504 23.3176C94.778 23.3372 95.6816 23.1895 96.3068 22.601C96.8398 22.1125 97.0405 21.3685 97.0499 20.6665C97.0627 19.4998 97.0516 18.3339 97.055 17.1681C96.1069 17.1664 95.158 17.1673 94.21 17.1673C94.21 17.6823 94.2091 18.1981 94.2108 18.7132C94.5141 18.714 94.8181 18.714 95.123 18.714C95.1196 19.3657 95.1247 20.0174 95.1205 20.6699C95.1162 20.9603 95.0923 21.2883 94.8736 21.506C94.6046 21.7554 94.2091 21.7956 93.8607 21.7537C93.5942 21.7213 93.3106 21.6017 93.1765 21.3566C93.0168 21.0679 93.0536 20.7263 93.0459 20.4094C93.0578 18.4962 93.0271 16.5814 93.0612 14.6682C93.086 13.6134 94.9317 13.5468 95.0889 14.5572C95.1529 15.0594 95.1085 15.5684 95.123 16.0732C95.7662 16.0749 96.4101 16.0749 97.055 16.0732C97.0413 15.348 97.119 14.5973 96.8773 13.8995C96.686 13.3256 96.2444 12.8447 95.6919 12.6004C94.9864 12.2784 94.1895 12.2665 93.4302 12.3228C92.647 12.3963 91.8348 12.7337 91.4086 13.4263ZM50.5155 12.3852C50.5163 13.9789 50.5155 15.5727 50.5155 17.1664C50.2951 17.1673 50.0748 17.1673 49.8553 17.1681C49.8553 17.6259 49.8544 18.0846 49.8561 18.5423C50.0756 18.5432 50.296 18.5432 50.5163 18.5432C50.5146 20.1053 50.5163 21.6683 50.5155 23.2305C51.6694 23.2305 52.8232 23.2347 53.978 23.2288C54.7578 23.21 55.6067 23.0127 56.1457 22.4063C56.6308 21.8673 56.7504 21.1123 56.7478 20.4111C56.7469 18.6474 56.7495 16.8837 56.7461 15.1191C56.7427 14.4453 56.6103 13.7253 56.1448 13.2094C55.6059 12.603 54.7569 12.4057 53.9763 12.3869C52.8224 12.3809 51.6685 12.3852 50.5155 12.3852ZM68.366 12.3852C68.3669 13.9789 68.366 15.5727 68.366 17.1664C68.1457 17.1673 67.9253 17.1673 67.7058 17.1681C67.7049 17.6259 67.7049 18.0837 67.7067 18.5423C67.9262 18.5432 68.1457 18.5432 68.3669 18.5432C68.366 20.1088 68.366 21.6735 68.3669 23.239C69.4362 23.2399 70.5064 23.2458 71.5765 23.2364C72.2846 23.2339 73.0328 23.1382 73.6315 22.7291C74.1012 22.4114 74.4002 21.8887 74.5138 21.3404C74.6274 20.7826 74.5932 20.2104 74.5983 19.6441C74.5975 18.1367 74.6 16.6292 74.5975 15.1226C74.5932 14.447 74.4608 13.7261 73.9953 13.2085C73.4581 12.6047 72.6126 12.4065 71.8353 12.3869C70.6789 12.3809 69.5225 12.3852 68.366 12.3852ZM77.3237 12.3843C76.6328 16.0014 75.9521 19.6211 75.262 23.239C75.888 23.2424 76.5132 23.2399 77.1392 23.2407C77.252 22.5856 77.375 21.9331 77.4834 21.278C78.3051 21.2737 79.1276 21.2772 79.9501 21.2772C80.0679 21.9314 80.1773 22.5873 80.3028 23.2399C80.9852 23.2407 81.6685 23.2416 82.3509 23.2399C81.677 19.6202 80.9792 16.004 80.3011 12.3852C79.3078 12.3835 78.3153 12.3852 77.3237 12.3843ZM83.2981 12.3852C83.299 16.0031 83.2981 19.6219 83.299 23.2399C83.9096 23.2407 84.5212 23.2416 85.1327 23.2399C85.1318 20.6306 85.137 18.0214 85.1301 15.413C85.9578 18.0239 86.7973 20.6315 87.6326 23.2399C88.321 23.2373 89.0111 23.2484 89.7004 23.2356C89.7585 23.1382 89.7123 23.0033 89.7286 22.8931C89.7243 19.3905 89.7269 15.8878 89.7269 12.3852C89.1196 12.3835 88.5123 12.3843 87.9059 12.3852C87.9059 14.5255 87.9068 16.6668 87.9059 18.8071C87.2184 16.6676 86.5351 14.5255 85.8527 12.3843C85.0012 12.3843 84.1496 12.3835 83.2981 12.3852ZM101.249 12.3852C101.249 16.0031 101.249 19.6211 101.249 23.239C101.931 23.2424 102.613 23.2407 103.296 23.2399C103.303 22.127 103.284 21.0141 103.304 19.9021C103.481 19.5638 103.713 19.2564 103.904 18.9241C104.554 20.3641 105.208 21.8016 105.862 23.2399C106.56 23.2416 107.259 23.2416 107.958 23.239C107.025 21.2293 106.079 19.2248 105.148 17.2142C106.089 15.6068 107.02 13.9943 107.956 12.3852C107.273 12.3835 106.592 12.3843 105.911 12.3852C105.04 13.9516 104.153 15.5095 103.292 17.0818C103.3 15.5163 103.294 13.9507 103.296 12.3843C102.613 12.3843 101.931 12.3835 101.249 12.3852ZM108.191 12.3869C108.982 14.64 109.778 16.8914 110.569 19.1445C110.641 19.3623 110.754 19.5775 110.742 19.8141C110.738 20.956 110.739 22.0979 110.74 23.2399C111.423 23.2407 112.104 23.2424 112.787 23.239C112.803 22.0168 112.755 20.7895 112.81 19.5698C113.645 17.1724 114.496 14.7809 115.335 12.3843C114.685 12.3843 114.035 12.3835 113.385 12.3852C112.877 14.0251 112.362 15.6623 111.854 17.3022C111.35 15.6606 110.833 14.0242 110.321 12.3852C109.611 12.3843 108.901 12.3826 108.191 12.3869ZM50.6479 25.452C50.647 25.651 50.647 25.85 50.6479 26.0498H114.705C114.704 25.85 114.704 25.651 114.705 25.452H50.6479ZM57.1501 27.1644C56.8469 27.53 56.5061 27.8631 56.208 28.2329C56.4147 28.2346 56.6222 28.2337 56.8306 28.2295C57.0032 28.0202 57.1817 27.8144 57.3619 27.6102C57.5489 27.8067 57.7163 28.0211 57.9068 28.2149C58.1058 28.2636 58.3185 28.2235 58.5226 28.2286C58.2074 27.8682 57.888 27.5112 57.5669 27.1567C57.4268 27.1593 57.2876 27.1618 57.1501 27.1644ZM69.1919 27.1644C68.8896 27.5308 68.5488 27.8631 68.2507 28.2329C68.4583 28.2354 68.6658 28.2337 68.8742 28.2295C69.0467 28.0194 69.2252 27.8144 69.4046 27.6102C69.5925 27.8178 69.7787 28.0279 69.9666 28.2372C70.1656 28.2346 70.3654 28.2329 70.5653 28.2295C70.251 27.8682 69.9307 27.512 69.6096 27.1567C69.4695 27.1593 69.3303 27.1618 69.1919 27.1644ZM104.212 28.1347C104.176 28.4011 104.18 28.7043 103.988 28.917C103.875 29.0562 103.696 29.1006 103.536 29.1544C102.808 28.4319 101.542 28.3499 100.745 29.0007C100.128 29.5029 99.8778 30.3246 99.8718 31.0967C99.8308 31.9115 99.923 32.7989 100.468 33.448C101.284 34.4712 103.121 34.3832 103.786 33.2362C104.274 32.4999 104.215 31.5835 104.19 30.7414C104.158 30.3493 104.041 29.9675 103.861 29.6191C104.111 29.5362 104.371 29.4269 104.529 29.204C104.767 28.9025 104.813 28.5079 104.837 28.1381C104.628 28.1355 104.42 28.1355 104.212 28.1347ZM99.4276 28.3226C99.3841 28.6087 99.4003 28.9358 99.2013 29.1698C99.0604 29.3415 98.8375 29.3987 98.6299 29.4346C98.6299 29.1664 98.6308 28.8982 98.6299 28.63C98.3908 28.6292 98.1516 28.6292 97.9133 28.6283C97.9151 29.8446 97.921 31.0616 97.9108 32.2779C97.915 32.6878 97.7912 33.1516 97.418 33.3762C96.9867 33.6214 96.4315 33.6256 95.9874 33.4112C95.6158 33.2174 95.4305 32.7869 95.4365 32.3821C95.4296 31.1317 95.4365 29.8804 95.4339 28.6292H94.7199C94.7182 29.8471 94.719 31.0659 94.719 32.2847C94.7148 32.6631 94.7831 33.0534 94.9966 33.3737C95.334 33.9041 95.9857 34.1628 96.598 34.15C97.1421 34.1757 97.7203 34.0253 98.1141 33.6316C98.4608 33.3156 98.6333 32.8407 98.6308 32.3769C98.6308 31.569 98.6299 30.761 98.6308 29.9539C98.9639 29.9214 99.3175 29.8574 99.5728 29.6225C99.9324 29.2996 100.009 28.7838 100.001 28.3243C99.8086 28.3234 99.6181 28.3234 99.4276 28.3226ZM50.6658 28.63C50.6641 30.4458 50.6658 32.2616 50.6649 34.0774C51.3431 34.0766 52.0221 34.0817 52.7011 34.0757C53.1845 34.0655 53.7004 33.9092 54.0181 33.5248C54.4426 32.991 54.481 32.1523 54.0446 31.6134C53.8866 31.4135 53.6491 31.3025 53.416 31.2162C53.7969 31.0557 54.1172 30.7226 54.1906 30.3066C54.2427 29.8779 54.1607 29.4013 53.8507 29.0819C53.527 28.7667 53.0615 28.6582 52.6234 28.642C51.9709 28.6155 51.3183 28.6352 50.6658 28.63ZM56.6718 28.6633C55.7912 28.9426 55.277 29.8497 55.2036 30.7302C55.1344 31.6262 55.143 32.6204 55.7118 33.3685C56.4267 34.3627 58.0674 34.4259 58.8822 33.5265C59.3553 32.9774 59.5424 32.2292 59.5142 31.5152C59.5697 30.609 59.3955 29.5764 58.6413 28.9828C58.093 28.5549 57.3277 28.4558 56.6718 28.6633ZM63.1022 29.0186C62.5471 29.4773 62.2883 30.2152 62.2806 30.9199C62.2874 31.5647 62.2165 32.2377 62.483 32.8458C62.7179 33.4949 63.297 34.0177 63.9862 34.1278C64.5183 34.1851 65.0906 34.162 65.556 33.8665C66.1052 33.5641 66.3606 32.9338 66.4417 32.3402C66.1992 32.3385 65.9575 32.3377 65.7158 32.3359C65.6423 32.669 65.5774 33.0397 65.3058 33.2754C64.9881 33.5445 64.5354 33.6068 64.1357 33.5419C63.7155 33.4762 63.3747 33.1533 63.209 32.7724C62.9451 32.1907 62.9938 31.5382 62.9989 30.9173C63.0254 30.4185 63.1475 29.8855 63.5105 29.5191C63.9794 29.0801 64.7814 29.0349 65.2879 29.4346C65.5552 29.678 65.6483 30.047 65.7132 30.3903C65.9541 30.3878 66.1949 30.3878 66.4366 30.3895C66.376 29.7369 66.0463 29.0648 65.4314 28.7752C64.6951 28.4242 63.7385 28.4874 63.1022 29.0186ZM68.7059 28.6659C67.8305 28.9486 67.3197 29.8531 67.2463 30.7311C67.1822 31.5886 67.1814 32.529 67.6836 33.2695C68.3489 34.3337 70.0281 34.4575 70.8873 33.5675C71.4109 32.9944 71.5953 32.1856 71.5569 31.4263C71.609 30.5475 71.41 29.5576 70.6857 28.9836C70.1348 28.5532 69.3644 28.4541 68.7059 28.6659ZM72.616 28.63C72.6143 30.4458 72.6151 32.2616 72.6151 34.0774C72.8594 34.0783 73.1045 34.0783 73.3496 34.0774C73.3531 32.7006 73.342 31.323 73.3556 29.9462C74.2712 31.311 75.1441 32.7058 76.0486 34.0783C76.2877 34.0783 76.526 34.0783 76.766 34.0774C76.7652 32.2616 76.766 30.4458 76.766 28.63C76.526 28.6292 76.2869 28.6292 76.0486 28.6275C76.0554 30.0282 76.0452 31.4289 76.0546 32.8296C75.1501 31.4297 74.243 30.0307 73.3402 28.63C73.0985 28.6283 72.8568 28.6283 72.616 28.63ZM78.2667 29.4141C77.8712 30.0017 77.8089 30.7379 77.8234 31.428C77.8054 32.1019 77.9412 32.8083 78.3572 33.3549C78.762 33.8921 79.447 34.1876 80.1158 34.1492C80.8076 34.1722 81.5652 33.9604 81.9922 33.3796C81.9939 32.7075 81.9931 32.0344 81.9922 31.3623H80.0295C80.0278 31.5664 80.0278 31.7705 80.0286 31.9747C80.4454 31.9747 80.8622 31.9755 81.279 31.9738C81.2765 32.3778 81.2782 32.7809 81.2773 33.1849C80.8349 33.5761 80.1679 33.6444 79.6161 33.489C78.932 33.2737 78.604 32.5273 78.5622 31.8611C78.5656 31.2752 78.5024 30.6713 78.7005 30.1076C78.8304 29.6806 79.166 29.3082 79.611 29.2057C80.0432 29.1246 80.5479 29.1485 80.8844 29.4679C81.1159 29.6592 81.1953 29.959 81.2773 30.2349C81.5148 30.2349 81.7539 30.2349 81.9922 30.2332C81.9222 29.7882 81.7488 29.3347 81.402 29.0315C80.5069 28.2875 78.9192 28.4003 78.2667 29.4141ZM84.4708 28.6292C84.4691 28.8333 84.4691 29.0374 84.4699 29.2416C85.0456 29.2424 85.6204 29.2407 86.196 29.2424C86.1935 30.8541 86.196 32.4658 86.1952 34.0774C86.4395 34.0783 86.6846 34.0783 86.9297 34.0774C86.9289 32.4658 86.9306 30.8541 86.9289 29.2424C87.5037 29.2407 88.0793 29.2424 88.655 29.2416C88.6541 29.0374 88.6541 28.8333 88.6541 28.6292H84.4708ZM89.4416 28.63C89.4399 30.4458 89.4416 32.2616 89.4407 34.0774C89.685 34.0783 89.9301 34.0783 90.1753 34.0774V31.5655C91.0755 31.5647 91.9757 31.5655 92.8768 31.5647C92.8759 32.4026 92.8768 33.2396 92.8759 34.0774C93.1142 34.0783 93.3525 34.0783 93.5916 34.0774C93.5908 32.2616 93.5925 30.4458 93.5908 28.63C93.3516 28.6292 93.1125 28.6292 92.8742 28.6283C92.8802 29.4098 92.8725 30.1905 92.8785 30.972C91.9765 30.9711 91.0755 30.9728 90.1744 30.9711C90.1761 30.1905 90.1753 29.4098 90.1744 28.63C89.9293 28.6292 89.685 28.6292 89.4416 28.63ZM105.327 28.63C105.326 30.4458 105.327 32.2616 105.327 34.0774C105.571 34.0783 105.815 34.0783 106.061 34.0774C106.06 32.6904 106.064 31.3033 106.06 29.9163C106.962 31.3025 107.856 32.6938 108.76 34.0783C108.999 34.0783 109.238 34.0783 109.478 34.0774C109.477 32.2616 109.478 30.4458 109.477 28.63C109.238 28.6292 108.999 28.6292 108.761 28.6275C108.766 30.0282 108.757 31.4289 108.766 32.8296C107.862 31.4297 106.956 30.0307 106.052 28.63C105.809 28.6283 105.568 28.6283 105.327 28.63ZM111.029 29.4679C110.663 30.0504 110.606 30.761 110.621 31.4323C110.603 32.1062 110.739 32.8134 111.157 33.3583C111.562 33.893 112.243 34.1868 112.91 34.1492C113.602 34.1731 114.361 33.9613 114.788 33.3814C114.791 32.7083 114.79 32.0353 114.789 31.3623H112.827C112.825 31.5664 112.824 31.7705 112.826 31.9747C113.243 31.9747 113.659 31.9755 114.076 31.9738C114.074 32.3778 114.075 32.7818 114.074 33.1858C113.631 33.5752 112.964 33.6453 112.412 33.489C111.728 33.2729 111.401 32.5264 111.36 31.8602C111.362 31.2769 111.3 30.6747 111.496 30.1127C111.624 29.6857 111.958 29.3116 112.402 29.2074C112.836 29.1246 113.344 29.1476 113.683 29.4688C113.913 29.6601 113.992 29.9599 114.075 30.2349C114.312 30.2349 114.55 30.2349 114.789 30.234C114.717 29.7677 114.527 29.2928 114.151 28.9905C113.23 28.2816 111.648 28.4242 111.029 29.4679ZM57.1569 34.6198C56.8563 34.7308 56.8537 35.2373 57.1501 35.3586C57.3986 35.4781 57.7642 35.3287 57.7531 35.0212C57.8026 34.6958 57.4336 34.4942 57.1569 34.6198Z" fill="#0084CB"/>
<path fill-rule="evenodd" clip-rule="evenodd" d="M23.0187 9.61707C23.2254 9.54276 23.4842 9.61963 23.5662 9.83657C23.7037 10.1765 23.6858 10.5711 23.5654 10.9136C23.4817 11.1886 23.105 11.2988 22.8949 11.0964C22.6839 10.8683 22.6908 10.5301 22.7036 10.2406C22.7309 10.0117 22.7736 9.71358 23.0187 9.61707Z" fill="#0084CB"/>
<path fill-rule="evenodd" clip-rule="evenodd" d="M52.5615 13.9311C53.0757 13.9516 53.6001 13.8781 54.1074 13.9883C54.4995 14.0814 54.7155 14.4854 54.6976 14.868C54.7019 16.829 54.7027 18.79 54.6976 20.7502C54.7096 21.1123 54.5242 21.5009 54.1578 21.6102C53.6385 21.7537 53.0928 21.6734 52.5624 21.6931C52.5624 20.6434 52.5641 19.5929 52.5615 18.5432C52.9749 18.5423 53.3891 18.544 53.8034 18.5423C53.8042 18.0837 53.8034 17.6259 53.8042 17.1672C53.39 17.1664 52.9758 17.1681 52.5624 17.1664C52.5624 16.0877 52.5641 15.0098 52.5615 13.9311Z" fill="#0084CB"/>
<path fill-rule="evenodd" clip-rule="evenodd" d="M70.4121 13.9311C70.9246 13.9516 71.4473 13.879 71.9537 13.9875C72.3466 14.078 72.5653 14.4811 72.5482 14.8646C72.5533 16.8256 72.5533 18.7875 72.5482 20.7493C72.5602 21.1097 72.3774 21.4983 72.0127 21.6085C71.4925 21.7554 70.9451 21.6734 70.413 21.6931C70.413 20.6434 70.4138 19.5929 70.4121 18.5432C70.8255 18.5423 71.2397 18.544 71.654 18.5423C71.6548 18.0837 71.654 17.6259 71.6548 17.1672C71.2406 17.1664 70.8263 17.1681 70.413 17.1664C70.413 16.0877 70.4138 15.0098 70.4121 13.9311Z" fill="#0084CB"/>
<path fill-rule="evenodd" clip-rule="evenodd" d="M59.9834 19.68C60.2986 17.8685 60.6325 16.0595 60.9443 14.248C61.256 16.0595 61.5908 17.8685 61.9051 19.68C61.2645 19.6757 60.624 19.6766 59.9834 19.68Z" fill="#0084CB"/>
<path fill-rule="evenodd" clip-rule="evenodd" d="M77.75 19.7295C78.0635 17.9163 78.3974 16.1073 78.7109 14.2941C79.0243 16.1073 79.3565 17.9171 79.6751 19.7295H77.75Z" fill="#0084CB"/>
<path fill-rule="evenodd" clip-rule="evenodd" d="M9.69362 19.5305C10.0908 19.4519 10.5323 19.5621 10.8552 19.8055C11.1413 19.9951 11.0166 20.5033 10.675 20.5358C10.3128 20.5802 9.93448 20.4564 9.62615 20.271C9.3443 20.1062 9.3964 19.6467 9.69362 19.5305Z" fill="#0084CB"/>
<path fill-rule="evenodd" clip-rule="evenodd" d="M51.3984 29.2424C51.9382 29.2697 52.5002 29.1672 53.0255 29.3304C53.6498 29.555 53.6259 30.5697 53.0366 30.8284C52.5258 31.0642 51.9416 30.9113 51.3993 30.954C51.3984 30.3835 51.4001 29.8129 51.3984 29.2424Z" fill="#0084CB"/>
<path fill-rule="evenodd" clip-rule="evenodd" d="M56.9898 29.2347C57.5048 29.0955 58.124 29.2612 58.4298 29.7181C58.7654 30.1853 58.8175 30.7858 58.7996 31.3435C58.815 31.9072 58.7774 32.5136 58.4486 32.9936C57.9891 33.711 56.7967 33.7196 56.3056 33.0337C55.9871 32.5981 55.8854 32.0413 55.9059 31.5117C55.9008 31.0411 55.8854 30.5552 56.0742 30.1136C56.2185 29.6985 56.5567 29.3441 56.9898 29.2347Z" fill="#0084CB"/>
<path fill-rule="evenodd" clip-rule="evenodd" d="M69.0378 29.233C69.5503 29.0972 70.1635 29.2621 70.4684 29.7147C70.8084 30.1845 70.8596 30.7892 70.8417 31.3512C70.8571 31.9132 70.8178 32.5161 70.4898 32.9944C70.0303 33.7119 68.8363 33.7187 68.346 33.032C68.0292 32.5973 67.9267 32.0413 67.948 31.5126C67.9429 31.042 67.9275 30.5551 68.1163 30.1136C68.2606 29.6959 68.6031 29.3406 69.0378 29.233Z" fill="#0084CB"/>
<path fill-rule="evenodd" clip-rule="evenodd" d="M101.584 29.2638C102.112 29.0801 102.782 29.2253 103.11 29.7011C103.477 30.1973 103.501 30.8413 103.485 31.434C103.504 31.9934 103.442 32.5973 103.091 33.0559C102.587 33.7384 101.393 33.6914 100.95 32.9663C100.529 32.3402 100.582 31.5561 100.601 30.8387C100.647 30.2033 100.929 29.4824 101.584 29.2638Z" fill="#0084CB"/>
<path fill-rule="evenodd" clip-rule="evenodd" d="M51.3984 31.5485C51.8622 31.5527 52.3268 31.5356 52.7906 31.5561C53.1553 31.5724 53.5277 31.8269 53.5875 32.2027C53.7045 32.6391 53.561 33.1943 53.11 33.3762C52.566 33.5889 51.9673 33.4642 51.3993 33.4975C51.3984 32.8475 51.4001 32.1984 51.3984 31.5485Z" fill="#0084CB"/>
</svg>
